<?xml version="1.0" encoding="UTF-8" standalone="no"?>
<!-- Created with Inkscape (http://www.inkscape.org/) -->

<svg
   xmlns:dc="http://purl.org/dc/elements/1.1/"
   xmlns:cc="http://creativecommons.org/ns#"
   xmlns:rdf="http://www.w3.org/1999/02/22-rdf-syntax-ns#"
   xmlns:svg="http://www.w3.org/2000/svg"
   xmlns="http://www.w3.org/2000/svg"
   xmlns:sodipodi="http://sodipodi.sourceforge.net/DTD/sodipodi-0.dtd"
   xmlns:inkscape="http://www.inkscape.org/namespaces/inkscape"
   id="svg2"
   version="1.1"
   inkscape:version="0.91 r13725"
   xml:space="preserve"
   width="656.03748"
   height="792.98749"
   viewBox="0 0 656.03748 792.98749"
   sodipodi:docname="koi-relax-logo-name.svg"><metadata
     id="metadata8"><rdf:RDF><cc:Work
         rdf:about=""><dc:format>image/svg+xml</dc:format><dc:type
           rdf:resource="http://purl.org/dc/dcmitype/StillImage" /><dc:title></dc:title></cc:Work></rdf:RDF></metadata><defs
     id="defs6" /><sodipodi:namedview
     pagecolor="#ffffff"
     bordercolor="#666666"
     borderopacity="1"
     objecttolerance="10"
     gridtolerance="10"
     guidetolerance="10"
     inkscape:pageopacity="0"
     inkscape:pageshadow="2"
     inkscape:window-width="1920"
     inkscape:window-height="1027"
     id="namedview4"
     showgrid="false"
     inkscape:zoom="0.96"
     inkscape:cx="334.73897"
     inkscape:cy="396.49374"
     inkscape:window-x="0"
     inkscape:window-y="0"
     inkscape:window-maximized="1"
     inkscape:current-layer="g10" /><g
     id="g10"
     inkscape:groupmode="layer"
     inkscape:label="ink_ext_XXXXXX"
     transform="matrix(1.25,0,0,-1.25,0,792.9875)"><g
       id="g12"
       transform="scale(0.1,0.1)"><path
         d="m 2388.74,5306.67 c 5.62,0 15.32,8.49 5.56,8.49 -5.63,0 -15.32,-8.49 -5.56,-8.49 l 0,0"
         style="fill:#050606;fill-opacity:1;fill-rule:nonzero;stroke:none"
         id="path14"
         inkscape:connector-curvature="0" /><path
         d="m 3130.39,3000.24 c 97.55,10.8 189.83,30.32 246.62,12.57 56.78,-17.75 60.33,-28.39 86.95,-44.36 26.62,-15.98 69.21,-21.3 55.01,-74.54 -14.19,-53.23 -147.29,-305.23 -415.39,-363.17 -36.58,-7.9 -37.12,121.83 -37.12,121.83 l 23.06,221.82 10.65,110.03 30.22,15.82"
         style="fill:#ffffff;fill-opacity:1;fill-rule:nonzero;stroke:none"
         id="path16"
         inkscape:connector-curvature="0" /><path
         d="m 3117.1,2987.58 c 77.69,9.04 166.58,34.09 243.13,10.3 25.42,-7.91 44.52,-21.17 66.56,-34.88 18.21,-11.32 51.33,-19.41 60.74,-40.8 12.64,-28.73 -12.54,-69.41 -26.08,-93.91 -23.07,-41.74 -51.21,-80.81 -82.93,-116.38 -40.75,-45.69 -87.66,-86.12 -140.42,-117.37 -29.14,-17.26 -72.18,-43.42 -106.82,-46.44 -18.05,-1.58 -12.66,-3.32 -20.36,12.28 -4.67,9.46 -6.17,21.35 -7.98,31.63 -11.25,63.73 0.37,126.49 6.98,190.12 7.3,70.17 14.31,140.34 21.11,210.55 -4.34,-4.19 -8.67,-8.38 -13.01,-12.58 10.07,5.27 20.15,10.55 30.22,15.82 36.08,18.89 -20.78,16.44 -35.69,8.63 -12.69,-6.64 -36.19,-13.55 -43.03,-26.95 -7.52,-14.72 -4.44,-45.29 -6.02,-61.59 -3.27,-33.8 -6.67,-67.56 -10.18,-101.33 -8.45,-81.27 -34.05,-181.79 -6.86,-262.6 19.64,-58.37 83.27,-27.31 127.34,-11.98 68.63,23.86 132.23,60.35 188.3,106.45 73.22,60.19 163.99,156.64 187.33,252.72 8.44,34.77 -4.94,52.7 -34.61,68.83 -26.13,14.22 -50.64,32.58 -77.95,44.38 -92.19,39.84 -197.79,11.53 -293.18,0.42 -16.37,-1.91 -66.69,-29.99 -26.59,-25.32"
         style="fill:#050606;fill-opacity:1;fill-rule:nonzero;stroke:none"
         id="path18"
         inkscape:connector-curvature="0" /><path
         d="m 3999.6,3589.22 c 9.71,0 19.38,7.76 28.97,7.76 -9.71,0 -19.38,-7.76 -28.97,-7.76 l 0,0"
         style="fill:#d3d3d3;fill-opacity:1;fill-rule:nonzero;stroke:none"
         id="path20"
         inkscape:connector-curvature="0" /><path
         d="m 3095.96,2560.54 c 75.92,28.55 147.02,72.92 215.24,116.18 59.2,37.53 126.61,76.49 172.3,130.75 3.83,4.54 -11.33,3.08 -14.19,-0.31 -46.79,-55.57 -118.19,-96.23 -178.88,-134.19 -63.58,-39.77 -129.78,-80.81 -200.24,-107.3 -10.16,-3.82 -0.77,-7.59 5.77,-5.13 l 0,0"
         style="fill:#050606;fill-opacity:1;fill-rule:nonzero;stroke:none"
         id="path22"
         inkscape:connector-curvature="0" /><path
         d="m 3096.58,2601.53 c 68.8,36.33 136.72,74.47 203.63,114.16 70.28,41.69 173.08,88.34 219.39,158.82 5.44,8.29 -8.88,11.41 -13.05,5.07 -20.76,-31.6 -58.11,-54.55 -88.69,-75.57 -46.72,-32.11 -95.35,-61.43 -144.25,-90.06 -60.6,-35.48 -121.95,-69.83 -184.05,-102.62 -9.25,-4.89 -0.97,-14.02 7.02,-9.8 l 0,0"
         style="fill:#050606;fill-opacity:1;fill-rule:nonzero;stroke:none"
         id="path24"
         inkscape:connector-curvature="0" /><path
         d="m 3098.97,2647.06 c 70.88,38.53 141.03,78.52 210.33,119.83 49.25,29.35 98.34,59.24 145.43,91.98 25.57,17.78 56.55,36.6 74.11,63.04 1,1.51 -12.7,1.03 -15.21,-2.75 -20.8,-31.32 -60.1,-53.03 -90.56,-73.44 -47.29,-31.67 -96.08,-61.11 -145.08,-90.03 -62.97,-37.15 -126.57,-73.33 -190.81,-108.26 -6.46,-3.51 8.92,-1.93 11.79,-0.37 l 0,0"
         style="fill:#050606;fill-opacity:1;fill-rule:nonzero;stroke:none"
         id="path26"
         inkscape:connector-curvature="0" /><path
         d="m 3097.96,2682.56 c 56.21,37.28 111.65,75.79 166.39,115.2 70.22,50.57 150,102.07 205.88,169.12 5.95,7.14 -8.87,7.52 -12.53,3.13 -57.8,-69.37 -140.13,-121.86 -212.89,-173.97 -51.58,-36.93 -103.75,-73.12 -156.62,-108.18 -8.69,-5.77 4.43,-8.84 9.77,-5.3 l 0,0"
         style="fill:#050606;fill-opacity:1;fill-rule:nonzero;stroke:none"
         id="path28"
         inkscape:connector-curvature="0" /><path
         d="m 3098.2,2727.08 c 54.43,38.26 108.03,77.79 160.69,118.44 53.68,41.44 132.67,89.51 165.36,151.49 4.07,7.72 -11.54,7.93 -14.76,1.83 -34.38,-65.18 -122.11,-116.72 -179.08,-160.14 -46.83,-35.69 -94.3,-70.61 -142.47,-104.48 -8.54,-6 3.99,-11.55 10.26,-7.14 l 0,0"
         style="fill:#050606;fill-opacity:1;fill-rule:nonzero;stroke:none"
         id="path30"
         inkscape:connector-curvature="0" /><path
         d="m 3108.93,2771.31 c 44.11,39.08 87.78,78.68 130.92,118.82 27.67,25.75 55.25,51.64 81.82,78.53 14.41,14.59 34.53,30.81 42.74,50.22 3.55,8.4 -11.97,9 -14.86,2.18 -8.56,-20.23 -31.8,-38.17 -46.93,-53.28 -28.77,-28.71 -58.55,-56.44 -88.41,-84.01 -38.21,-35.3 -76.77,-70.22 -115.7,-104.72 -7.81,-6.92 4.27,-13.18 10.42,-7.74 l 0,0"
         style="fill:#050606;fill-opacity:1;fill-rule:nonzero;stroke:none"
         id="path32"
         inkscape:connector-curvature="0" /><path
         d="m 3100.04,2827.48 c 34.96,29.41 69.58,59.25 103.82,89.49 33.78,29.83 85.09,63.68 106.81,104.4 0.97,1.81 -13.14,1.05 -15.19,-2.8 -22.46,-42.09 -76.97,-77.78 -112.06,-108.65 -32.13,-28.27 -64.56,-56.2 -97.31,-83.75 -3.04,-2.56 11.09,-1.07 13.93,1.31 l 0,0"
         style="fill:#050606;fill-opacity:1;fill-rule:nonzero;stroke:none"
         id="path34"
         inkscape:connector-curvature="0" /><path
         d="m 3110.69,2891 c 18.96,14.89 37.31,30.65 55.05,46.98 23.27,21.42 51,45.63 63.93,75.26 0.99,2.28 -13.5,1.14 -15.21,-2.77 -13.4,-30.73 -42.47,-55.42 -66.79,-77.52 -16.46,-14.97 -33.42,-29.47 -50.92,-43.22 -3.09,-2.42 11.01,-1.04 13.94,1.27 l 0,0"
         style="fill:#050606;fill-opacity:1;fill-rule:nonzero;stroke:none"
         id="path36"
         inkscape:connector-curvature="0" /><path
         d="m 3108.68,2938.88 c 26.71,21.66 54.53,42.6 79.8,65.94 6.83,6.3 -8.25,7.68 -12.66,3.6 -24.4,-22.53 -51.27,-42.74 -77.06,-63.65 -8.11,-6.58 4.53,-10.26 9.92,-5.89 l 0,0"
         style="fill:#050606;fill-opacity:1;fill-rule:nonzero;stroke:none"
         id="path38"
         inkscape:connector-curvature="0" /><path
         d="m 2152.84,2951.11 c -35.79,13.79 -60.63,8.46 -74.83,17.34 -14.2,8.87 -15.97,-4.42 -47.91,5.77 -31.95,10.2 -31.95,14.66 -74.54,0 -42.59,-14.65 -191.65,-99.83 -204.07,-119.35 -12.43,-19.52 -61.53,-48.99 26.61,-124.22 82.95,-70.79 206.64,-188.07 406.22,-237.47 65.82,-16.29 42.76,97.28 42.76,97.28 l -40.82,299.9 -33.42,60.75"
         style="fill:#ffffff;fill-opacity:1;fill-rule:nonzero;stroke:none"
         id="path40"
         inkscape:connector-curvature="0" /><path
         d="m 2178.05,2963.57 c -30.13,9.68 -63.56,16.13 -94.28,21.18 -25.64,4.22 -55,13.51 -81.74,11.66 -60.91,-4.22 -121.01,-42.58 -172.52,-72.04 -40.12,-22.95 -86.43,-45.41 -115.14,-82.77 -40.81,-53.11 4.13,-94.98 46.33,-131.68 60.56,-52.68 122.47,-103.84 191.93,-144.52 63.23,-37.04 160.9,-93.47 236.52,-86.61 96.2,8.72 70.68,105.96 61.58,172.87 -8.99,66.05 -17.98,132.09 -26.97,198.13 -6.1,44.84 -17.72,68.97 -40.07,109.59 -8.87,16.12 -67.51,-5.99 -61.71,-16.54 12.49,-22.7 28.63,-44.99 34.69,-70.01 8.92,-36.82 10.5,-77.15 15.6,-114.65 8.83,-64.87 20.39,-129.98 26.7,-195.15 2.13,-21.93 -2.58,-38.23 -5.86,-59.27 1.47,9.45 46.26,-11.32 -1.51,6.55 -8.39,3.14 -17.52,5.03 -26.08,7.72 -24.14,7.56 -47.77,16.4 -71,26.39 -68.22,29.36 -131.14,69.34 -189.59,114.96 -43.64,34.05 -115.78,79.8 -140.11,130.23 -16.62,34.46 5.43,61.91 32.39,82.15 46.05,34.6 103.02,68.67 156.85,89.45 27.86,10.74 57.22,0.74 86.14,-4.16 27.39,-4.64 59.37,-9.39 87.42,-18.4 14.68,-4.72 69.71,18.73 50.43,24.92"
         style="fill:#050606;fill-opacity:1;fill-rule:nonzero;stroke:none"
         id="path42"
         inkscape:connector-curvature="0" /><path
         d="m 2203.05,2546.22 c -179.94,21.23 -348.18,167.95 -464.8,294.04 -5,5.4 -19.57,-1.03 -14.08,-6.96 119.15,-128.83 289.87,-277.15 473.69,-298.84 7.93,-0.93 15.57,10.54 5.19,11.76 l 0,0"
         style="fill:#050606;fill-opacity:1;fill-rule:nonzero;stroke:none"
         id="path44"
         inkscape:connector-curvature="0" /><path
         d="m 2192.56,2568.02 c -40.97,10.69 -80.18,31.77 -116.98,52.05 -116.05,63.97 -220.05,148.41 -317,238.09 -4.76,4.4 -19.34,-1.81 -14.18,-6.58 97.72,-90.39 202.26,-175.48 319.18,-240 37.55,-20.72 78.07,-42.45 119.92,-53.38 6.15,-1.61 18.24,7.42 9.06,9.82 l 0,0"
         style="fill:#050606;fill-opacity:1;fill-rule:nonzero;stroke:none"
         id="path46"
         inkscape:connector-curvature="0" /><path
         d="m 2193.92,2611.09 c -56.77,31.33 -112.4,64.98 -166.89,100.1 -75.91,48.93 -171.97,104.13 -220.91,182.68 -3.97,6.37 -18.56,0.19 -14.06,-7.02 47.77,-76.68 139.25,-130.35 213.03,-178.41 57.7,-37.58 116.75,-73.41 177.06,-106.67 6.34,-3.51 19.56,5.03 11.77,9.32 l 0,0"
         style="fill:#050606;fill-opacity:1;fill-rule:nonzero;stroke:none"
         id="path48"
         inkscape:connector-curvature="0" /><path
         d="m 2169.39,2672.05 c -121.41,62.12 -236.15,144.81 -333.68,239.81 -5.08,4.94 -19.65,-1.47 -14.11,-6.87 99.28,-96.69 215.38,-180.31 338.94,-243.51 6.46,-3.31 17.61,6.09 8.85,10.57 l 0,0"
         style="fill:#050606;fill-opacity:1;fill-rule:nonzero;stroke:none"
         id="path50"
         inkscape:connector-curvature="0" /><path
         d="m 2172.25,2699.51 c -98.61,70.53 -201.64,148.46 -276.7,244.38 -2.79,3.57 -16.39,-2.9 -15.42,-4.13 75.41,-96.39 178.5,-174.56 277.55,-245.4 3.39,-2.42 16.47,3.79 14.57,5.15 l 0,0"
         style="fill:#050606;fill-opacity:1;fill-rule:nonzero;stroke:none"
         id="path52"
         inkscape:connector-curvature="0" /><path
         d="m 2179.33,2744.37 c -34.73,28.13 -68.61,57.38 -101.7,87.4 -41.93,38.05 -102.6,84.14 -123.23,138.74 -1.38,3.67 -16.57,-1.09 -15.42,-4.13 19.89,-52.64 76.72,-96.47 116.77,-133.18 35.38,-32.42 71.75,-63.89 109.05,-94.1 3.26,-2.64 16.85,3.39 14.53,5.27 l 0,0"
         style="fill:#050606;fill-opacity:1;fill-rule:nonzero;stroke:none"
         id="path54"
         inkscape:connector-curvature="0" /><path
         d="m 2172.68,2800.15 c -16.07,28.1 -48.59,51.35 -71.15,73.95 -34.07,34.13 -73.28,69.07 -97.01,111.58 -1.93,3.46 -16.43,-2.33 -15.42,-4.13 21.14,-37.87 55.44,-69.65 85.61,-100.21 25.78,-26.12 64.14,-53.14 82.54,-85.32 1.98,-3.47 16.43,2.38 15.43,4.13 l 0,0"
         style="fill:#050606;fill-opacity:1;fill-rule:nonzero;stroke:none"
         id="path56"
         inkscape:connector-curvature="0" /><path
         d="m 2178.07,2868.5 c -38.18,22.87 -79.85,57.83 -92.35,102.01 -1.84,6.53 -17.27,2.39 -15.42,-4.13 13,-45.98 55.99,-82.49 95.75,-106.31 5.3,-3.17 19.11,4.19 12.02,8.43 l 0,0"
         style="fill:#050606;fill-opacity:1;fill-rule:nonzero;stroke:none"
         id="path58"
         inkscape:connector-curvature="0" /><path
         d="m 2299.83,5413.83 c -24.84,26.62 -51.46,40.81 -37.26,51.46 14.19,10.65 63.64,45.04 125.55,24.4 19.96,-6.65 11.98,-17.49 11.98,-34.69 0,-17.21 58.56,-89.09 63.88,-82.43 5.33,6.65 2.66,22.63 0,38.6 -2.66,15.97 -0.5,62.55 3.08,77.19 3.58,14.64 46.17,272.84 58.15,295.47 11.97,22.63 27.95,43.92 46.58,42.59 18.63,-1.33 18.63,-33.28 17.3,-71.87 -1.33,-38.6 11.59,-285.66 13.31,-347.38 1.71,-61.22 0,-230.25 -17.3,-272.84 0,0 -1.33,-45.25 49.24,-119.78 50.58,-74.54 194.32,-577.63 214.28,-638.86 19.97,-61.22 194.32,-728.02 204.97,-785.25 10.65,-57.23 78.52,-513.74 78.52,-559 0,-45.25 -25.28,-226.26 -18.63,-283.49 6.66,-57.23 3.99,-121.11 -3.99,-179.67 -7.99,-58.56 -64.98,-368.2 -72.97,-396.15 -7.98,-27.95 -3.9,-76.3 -26.85,-138.89 -16.83,-45.9 -26.62,-129.55 -74.53,-189.88 -23.02,-28.98 -125.62,-209.4 -273.29,-209.4 -113.57,0 -167.43,62.83 -186.33,78.08 -19.26,15.53 -64.77,90.95 -87.4,121.56 -22.63,30.61 -75.86,153.06 -79.86,178.34 -3.99,25.29 -11.98,46.59 -23.95,78.53 -11.98,31.94 -81.19,296.8 -95.83,380.65 -14.64,83.85 -45.25,178.34 -33.28,236.91 11.98,58.56 -5.43,165.03 -2.71,231.58 2.71,66.55 -1.28,356.69 5.38,440.54 6.65,83.85 27.95,428.56 53.23,531.05 20.5,83.06 69.21,372.66 95.83,460.5 23.86,78.74 70.54,439.21 98.49,527.05 27.95,87.85 66.55,121.12 55.9,227.59 -10.65,106.48 -66.55,186.34 -82.52,198.31 -15.97,11.98 -62.47,73.06 -78.97,89.18"
         style="fill:#ffffff;fill-opacity:1;fill-rule:nonzero;stroke:none"
         id="path60"
         inkscape:connector-curvature="0" /><path
         d="m 2283.94,5477.95 c 124.96,-88.02 244.43,-260.49 245.09,-416.49 0.01,-2.59 15.44,-0.36 15.42,4.13 -0.65,155.52 -120.93,329.57 -245.98,417.65 -3.55,2.5 -16.82,-3.68 -14.53,-5.29 l 0,0"
         style="fill:#050606;fill-opacity:1;fill-rule:nonzero;stroke:none"
         id="path62"
         inkscape:connector-curvature="0" /><path
         d="m 2514.94,5774.91 c 14.1,-195.52 24.89,-403.61 -3.48,-598.12 -1.01,-6.88 14.64,-4.45 15.52,1.59 28.51,195.43 17.56,404.1 3.39,600.66 -0.43,5.93 -15.9,2.5 -15.43,-4.13 l 0,0"
         style="fill:#050606;fill-opacity:1;fill-rule:nonzero;stroke:none"
         id="path64"
         inkscape:connector-curvature="0" /><path
         d="m 2439.02,5428 c 39.24,-49.99 41.4,-130.45 45.6,-190.21 0.15,-2.2 15.35,0.94 15.07,4.96 -4.19,59.69 -6.4,140.27 -45.6,190.2 -2.53,3.24 -16.51,-3.12 -15.07,-4.95 l 0,0"
         style="fill:#050606;fill-opacity:1;fill-rule:nonzero;stroke:none"
         id="path66"
         inkscape:connector-curvature="0" /><path
         d="m 2405.42,4898.75 c 46.64,119.25 95.16,169.7 95.16,169.7 0,0 34.64,0 37.94,17.97 10.01,54.52 7.55,63.6 64.33,-16.26 24.99,-35.13 26.88,-72.59 39.3,-69.04 12.43,3.55 22.67,-50.9 29.43,-68.99 6.75,-18.09 77.55,-229.81 77.55,-229.81 0,0 12.1,-15.87 -26.94,0 -39.05,15.87 -31.45,-3.35 -58.32,-7.05 -26.86,-3.7 -3.8,-10.8 -73,-7.25 -69.21,3.55 -60.34,0 -97.61,8.87 -37.26,8.88 -31.49,12.43 -64.54,0 -33.06,-12.42 -67.98,-27.74 -64.99,-9.83 3,17.9 23.96,200.75 41.69,211.69"
         style="fill:#ee232e;fill-opacity:1;fill-rule:nonzero;stroke:none"
         id="path68"
         inkscape:connector-curvature="0" /><path
         d="m 2667.17,2478.66 c 26.62,7.1 44.37,5.32 69.21,14.2 24.85,8.87 33.72,19.52 62.11,19.52 28.4,0 5.33,-10.65 21.3,-16.86 15.97,-6.21 51.46,-29.28 40.81,-48.8 -10.64,-19.52 -13.83,-42.59 1.96,-69.21 15.79,-26.62 38.86,-79.86 40.63,-117.12 1.78,-37.27 -8.87,-69.21 -35.49,-104.7 -26.62,-35.5 -10.65,-39.05 -42.59,-51.47 -31.94,-12.42 -39.61,-15.97 -42.87,-44.36 -3.27,-28.4 -31.66,-60.34 -56.51,-53.24 -24.84,7.1 -58.56,-17.75 -74.53,-17.75 -15.97,0 -21.58,31.95 -77.33,49.69 -55.76,17.75 -68.18,51.47 -73.51,92.28 -5.32,40.82 8.87,60.34 -28.39,101.15 -37.27,40.82 -39.04,53.24 -37.27,97.6 1.78,44.37 23.07,133.1 46.14,147.3 23.07,14.19 58.28,33.71 93.03,35.49 34.74,1.77 43.61,-35.49 63.14,-35.49 19.52,0 30.16,1.77 30.16,1.77"
         style="fill:#ee232e;fill-opacity:1;fill-rule:nonzero;stroke:none"
         id="path70"
         inkscape:connector-curvature="0" /><path
         d="m 2664.32,2472.9 c 55.24,11.8 130.32,50.7 171.33,-2.06 14.86,-19.13 3.8,-32.39 1.28,-51.95 -2.27,-17.54 3.13,-29.92 10.2,-45.52 15.48,-34.12 34.08,-66.2 39.3,-104.16 6.35,-46.26 -10.48,-78.77 -33.95,-116.23 -15.02,-23.96 -18.16,-34.13 -44.98,-50.07 -7.48,-4.45 -16.64,-6.17 -23.47,-11.93 -16.06,-13.53 -12.76,-28.13 -19.87,-46.08 -14.43,-36.48 -40.79,-27.63 -70.59,-36.16 -15.82,-4.53 -26.25,-13.64 -41.05,-7.22 -8.75,3.8 -17.71,18 -25.85,23.76 -27.12,19.19 -63.81,21.56 -86.7,46.95 -25.91,28.72 -23.12,66.33 -25.68,101.92 -2.44,34.01 -18.52,49.78 -38.94,75.75 -43.42,55.22 -25.93,138.26 0.44,198.88 15.75,36.21 73.45,71.11 113.64,47.88 10.15,-5.87 15.15,-18.42 26.15,-23.45 14.47,-6.62 33.71,-2.3 48.74,-0.31 12.56,1.66 27.49,14.4 5.7,11.52 -35.54,-4.69 -41.79,25.2 -71.6,32.95 -19.99,5.2 -45.32,-1.97 -64.34,-8.26 -62.22,-20.6 -87.3,-47.8 -103.15,-111.11 -15.57,-62.17 -20.06,-113.55 20.93,-164.96 30.94,-38.79 27.52,-60.76 33.07,-106.33 3.44,-28.14 12.54,-54.9 34.94,-73.38 27.82,-22.93 65.1,-27.58 93.05,-51.54 11.28,-9.67 16.24,-18.13 31.61,-19.18 22.9,-1.55 54.8,14.35 76.6,17.28 15.56,2.09 29.13,3 43,11.99 24.94,16.17 23.41,37.81 35.05,61.42 12.64,25.62 45.24,25.74 62.32,47.13 42.12,52.74 68.75,118.33 49.31,185.1 -12.51,42.95 -50.44,86.06 -40.39,131.75 3.42,15.54 10.04,18.81 2.86,34.09 -7.81,16.63 -26.88,18.73 -38.96,29.42 -15.29,13.53 -8.48,19.19 -36.65,17.26 -43.04,-2.95 -85.67,-24.65 -127.65,-33.63 -12.11,-2.59 -27.27,-16.13 -5.7,-11.52"
         style="fill:#ee232e;fill-opacity:1;fill-rule:nonzero;stroke:none"
         id="path72"
         inkscape:connector-curvature="0" /><path
         d="m 2367.27,2798.09 c 31.94,17.74 52.33,-17.75 66.98,0 14.65,17.74 -17.29,46.14 32.39,56.78 49.69,10.65 65.38,4.64 107.23,9.42 41.84,4.78 77.07,68.89 94.95,33.29 17.87,-35.61 64.01,-14.31 85.31,-7.22 21.29,7.1 31.94,7.1 70.98,0 39.04,-7.09 92.28,-40.83 95.83,-13.32 3.55,27.52 17.74,35.44 0,74.07 -17.75,38.63 -77.71,127.36 -17.56,130.91 60.15,3.55 113.39,-42.59 120.49,0 7.09,42.59 103.45,0.2 103.45,0.2 0,0 -6.88,56.67 -15.37,117.32 -8.49,60.66 -25.25,221.21 -50.27,341.81 -25.02,120.6 -45.57,316.85 -82.51,345.79 -36.94,28.94 2.48,21.84 -75.79,67.98 -78.27,46.14 -34.47,117.12 -121.14,133.09 -86.67,15.97 -187.83,10.65 -262.36,-74.53 -74.53,-85.18 -90.5,-159.71 -58.56,-175.69 31.94,-15.97 87.9,-35.76 55.01,-49.68 -38.98,-16.51 -47.91,-27.45 -42.59,-58.09 5.33,-30.64 -52.09,-37.1 -118.89,-20 -78.09,20 -67.44,-134.86 117.12,-207.62 129.63,-51.11 133.09,-117.13 37.26,-191.66 -95.82,-74.53 -149.06,10.65 -223.59,21.3 -74.54,10.64 -126,-47.92 -97.61,-47.92 28.4,0 73.5,-53.23 42.96,-79.85 -30.53,-26.62 -80.18,-69.2 -78.8,-117.13 1.38,-47.92 -36.91,-123.4 48.27,-136.23 85.18,-12.83 101.15,-101.56 117.12,-131.73 15.97,-30.17 49.69,-21.29 49.69,-21.29"
         style="fill:#ee232e;fill-opacity:1;fill-rule:nonzero;stroke:none"
         id="path74"
         inkscape:connector-curvature="0" /><path
         d="m 2200.46,3853.31 c 95.82,11.3 266.18,181.66 324.75,272.17 58.56,90.5 99.24,127.77 110.84,239.57 11.6,111.8 54.19,181 -30.99,202.3 -85.18,21.29 -101.15,31.94 -117.12,0 -15.97,-31.94 -44.7,-37.54 -44.7,-37.54 0,0 -27.61,-13.92 -14.52,-24.57 13.08,-10.65 8.21,-24.85 0,-26.62 -8.21,-1.77 -34.83,5.32 -29.51,-14.2 5.32,-19.52 5.32,-37.26 -10.65,-46.14 -15.97,-8.87 -47.91,-5.32 -51.46,-30.16 -3.55,-24.85 -46.76,-82.37 -49.86,-96.8 -3.09,-14.42 -22.07,-107.79 -28.58,-141.62 -6.51,-33.82 -7.01,-84.79 -24.62,-128.15 -17.61,-43.36 -13.02,-67.26 -17.98,-88.81 -4.96,-21.54 -15.6,-79.43 -15.6,-79.43"
         style="fill:#ee232e;fill-opacity:1;fill-rule:nonzero;stroke:none"
         id="path76"
         inkscape:connector-curvature="0" /><path
         d="m 2818.57,4475.06 c -41.37,28.4 -46.7,74.54 -73.32,72.77 -26.61,-1.78 -19.52,-19.52 -28.39,-17.75 -8.87,1.78 -48.8,-5.3 -43.48,-22.18 5.33,-16.88 18.64,-47.03 9.76,-100.26 -8.87,-53.24 -26.61,-196.98 -15.97,-214.73 10.65,-17.74 33.72,-37.26 47.92,-24.84 14.19,12.42 26.62,17 40.81,-3.92 14.2,-20.93 31.28,-61.74 62.67,-45.77 31.39,15.97 63.33,17.74 61.55,35.49 -1.77,17.75 -11.12,65.95 0.07,66.54 11.2,0.58 3.29,30.05 3.29,30.05 l -24.52,89.78 -40.39,134.82"
         style="fill:#ee232e;fill-opacity:1;fill-rule:nonzero;stroke:none"
         id="path78"
         inkscape:connector-curvature="0" /><path
         d="m 2541.18,4751.02 c 2.66,53.24 21.29,188.99 45.25,175.68 23.96,-13.31 50.22,-42.59 45.08,-101.15 -5.15,-58.56 58.73,-255.54 53.41,-436.55 -5.32,-181 -7.99,-244.89 -39.93,-348.7 -31.94,-103.82 34.61,-332.74 29.28,-385.98 -5.32,-53.23 -52.92,-69.2 -61.06,-31.94 -8.15,37.27 -13.47,98.49 -26.78,204.97 -13.31,106.47 -2.66,141.08 13.31,242.23 15.97,101.15 21.29,266.19 2.66,362.01 -18.63,95.83 -65.16,275.26 -61.22,319.43"
         style="fill:#ffffff;fill-opacity:1;fill-rule:nonzero;stroke:none"
         id="path80"
         inkscape:connector-curvature="0" /><path
         d="m 2548.89,4753.09 c 2.49,41.23 7.57,83.12 17.04,123.38 2.14,9.12 3.85,31.24 11.33,37.14 15.9,12.54 32.77,-15.74 39.79,-33.05 12.25,-30.2 5.06,-65.22 9.28,-97.18 5.86,-44.38 16.12,-88.25 24.23,-132.25 35.71,-193.67 44.73,-408.78 -9.65,-600.28 -21.53,-75.84 -10,-154.61 2.1,-231.32 6.04,-38.28 13.54,-76.33 19.18,-114.68 1.84,-12.49 4.24,-25.38 4.41,-38.02 0.33,-24.97 -24.35,-78.53 -45.68,-42.38 -12.53,21.22 -10.14,65.47 -12.99,89.42 -6.97,58.53 -16.61,117.52 -19.22,176.43 -4.2,94.85 23.29,188.41 29.67,282.85 7.36,108.89 2.42,214.41 -20.99,320.96 -17.98,81.84 -52.12,174.34 -48.5,258.98 0.12,2.88 -15.22,0.79 -15.43,-4.14 -3.96,-92.66 35,-194.96 54.09,-284.68 24.73,-116.23 23.52,-237.55 10.02,-355.28 -6.13,-53.47 -18.52,-106.14 -23.1,-159.79 -5.14,-60.18 3.87,-119.53 10.96,-179.18 4.07,-34.24 -2.45,-180.17 54.33,-170.18 61.61,10.85 39.38,101.34 32.61,141.47 -16.2,95.92 -44.52,203.81 -19.74,300.24 58.59,228.05 42.8,457.54 -0.67,687.09 -4.3,22.7 -9.11,45.53 -11.45,68.54 -2.54,25.1 2.25,51.03 -4.23,75.6 -5.25,19.89 -26.06,61.02 -52.07,58.05 -48.94,-5.6 -48.65,-147.19 -50.75,-181.88 -0.17,-2.8 15.13,-0.82 15.43,4.14"
         style="fill:#ffffff;fill-opacity:1;fill-rule:nonzero;stroke:none"
         id="path82"
         inkscape:connector-curvature="0" /><path
         d="m 2963.95,2008.16 c -5.62,-16.7 -21.02,-49.19 -41.44,-29.07 -14.71,14.49 -15.18,39.86 -9.89,58.27 4.94,17.14 21.49,48.72 41.44,29.07 15.12,-14.89 14.49,-39.42 9.89,-58.27 -1.65,-6.78 28.54,-2.5 30.45,5.37 7.81,32.01 -0.52,74.64 -40.97,73.92 -33.27,-0.59 -62.06,-23.87 -71.26,-55.46 -9.03,-31 0.79,-73.58 39.31,-73.96 34.83,-0.34 62.22,23.72 72.92,55.5 2.02,5.99 -27.75,2.65 -30.45,-5.37"
         style="fill:#050606;fill-opacity:1;fill-rule:nonzero;stroke:none"
         id="path84"
         inkscape:connector-curvature="0" /><path
         d="m 2950.59,2020.37 c -4.55,-23.45 -13.75,-41.39 -20.54,-40.08 -6.8,1.32 -8.61,21.4 -4.06,44.85 4.55,23.46 13.74,41.4 20.54,40.08 6.79,-1.32 8.61,-21.4 4.06,-44.85"
         style="fill:#050606;fill-opacity:1;fill-rule:nonzero;stroke:none"
         id="path86"
         inkscape:connector-curvature="0" /><path
         d="m 2315.07,1995.92 c 10.88,-32.33 36.9,-55.75 72.33,-46.92 36.39,9.08 50.42,44.28 40.3,79.01 -9.27,31.83 -36.45,54.74 -70.25,47.37 -38.62,-8.42 -51.17,-43.4 -42.38,-79.46 1.84,-7.58 32.8,0.28 30.85,8.26 -3.43,14.06 -7.78,54.29 12.56,57.82 18.41,3.19 34.45,-28.82 38.37,-42.25 3.71,-12.75 7.67,-50.36 -9.21,-57.59 -19.32,-8.28 -37.44,29.32 -41.72,42.02 -2.67,7.93 -33.28,-1.04 -30.85,-8.26"
         style="fill:#050606;fill-opacity:1;fill-rule:nonzero;stroke:none"
         id="path88"
         inkscape:connector-curvature="0" /><path
         d="m 2358.27,2007.51 c 7.67,-22.62 19.77,-38.97 27.02,-36.51 7.24,2.46 6.89,22.8 -0.79,45.42 -7.67,22.62 -19.77,38.96 -27.02,36.5 -7.24,-2.45 -6.89,-22.79 0.79,-45.41"
         style="fill:#050606;fill-opacity:1;fill-rule:nonzero;stroke:none"
         id="path90"
         inkscape:connector-curvature="0" /><path
         d="m 2321.32,5422.9 c -5.43,5.4 -39.96,30.67 -39.09,39.31 1.17,11.64 53.66,21.95 61.43,20.72 40.5,-6.41 29.08,-32.51 44.3,-58.16 13.49,-22.72 40.68,-69.65 72.88,-65.06 9.26,1.31 23.11,5.63 26.29,15.75 5.85,18.65 -0.67,36.72 0.17,55.89 0.83,19.01 6.2,37.81 9.73,56.43 3.91,20.65 7.1,41.36 10.19,62.17 10.17,68.61 18.8,137.91 33.04,205.84 4.4,20.97 23.62,71.91 26.1,23.45 1.62,-31.54 -0.17,-63.67 0.96,-95.32 2.86,-80.55 7.05,-161.04 10.39,-241.57 3.25,-78.17 3.32,-156.84 -3.2,-234.85 -2.2,-26.37 -11.75,-54.37 -12.55,-80.17 -0.94,-30.32 17.08,-64.34 31.05,-89.59 67.47,-122.02 106.34,-255.35 147.61,-388.44 68.12,-219.68 129.76,-440.3 187.94,-662.82 32.36,-123.78 65.51,-247.5 95.06,-371.99 23.51,-99.06 33.86,-202.07 48.42,-302.7 17.42,-120.42 42.61,-240.46 30.82,-362.13 -7.95,-81.99 -14.02,-160.82 -9.61,-242.95 4.49,-83.72 -10.17,-165.52 -24.68,-247.47 -13.41,-75.7 -27.24,-151.34 -41.98,-226.79 -13.11,-67.12 -19.74,-137.06 -40.06,-202.1 -13.13,-42 -21.8,-85.75 -38.74,-126.49 -14.51,-34.89 -37.53,-65.04 -59.27,-95.7 -54.9,-77.45 -130.94,-166.62 -235.12,-160.53 -164.92,9.65 -258.94,199.07 -310.07,333.81 -51.52,135.78 -84.33,283.55 -116.78,425 -22.13,96.49 -58.74,205.75 -48.2,304.47 9.12,85.51 -3.6,171.19 -2.1,257.05 2.56,146.78 -4.12,294.03 6.68,440.55 11.65,158.19 16.93,319.59 45.21,475.91 27.45,151.72 55.93,305.68 92.67,455.42 34.89,142.19 54.29,286.92 79.89,431.03 12.49,70.33 27.31,135.06 55.36,201.03 42.6,100.22 36.67,203.85 -13.92,301.25 -28.68,55.22 -78.14,105.08 -120.82,149.75 -11.16,11.68 -55.17,-5.38 -42.97,-18.14 56.31,-58.95 114.04,-120.31 140.86,-198.63 19.35,-56.52 28.18,-119.77 13.33,-178.31 -12.31,-48.53 -38.92,-92.16 -52.73,-140.29 -43.61,-151.94 -53.27,-313.92 -84.39,-468.67 -31.08,-154.52 -65.1,-309.01 -97.09,-463.5 -32.61,-157.43 -44.58,-316.69 -56.24,-476.95 -11.14,-153.2 -11.18,-305.75 -11.7,-459.33 -0.27,-78.98 2.69,-156.84 5.36,-235.79 1.79,-52.84 -9.9,-103.12 -2.89,-155.84 7.89,-59.32 23.51,-118.09 35.15,-176.8 30.18,-152.39 76.17,-300.69 118.14,-449.68 19.14,-67.96 52.66,-135.25 92.37,-193.37 40.98,-59.97 75.97,-118.16 141.09,-154.31 164.57,-91.33 318.09,21.32 412.02,153.84 17.72,25 37.14,49.84 51.05,77.11 23.67,46.37 32.79,97.5 48.37,146.69 21.17,66.79 28.35,138.32 41.83,207.29 30.36,155.46 74.94,321.49 66.65,480.89 -7.06,135.7 23.96,268.41 6.68,403.6 -18.66,145.94 -40.04,291.69 -63.31,436.96 -14.94,93.31 -42.18,184.8 -65.73,276.19 -61.3,237.9 -123.93,475.02 -194.93,710.19 -44.56,147.59 -84.11,302.09 -148.09,442.78 -24.19,53.19 -70.35,101.34 -61.9,161.53 11.86,84.54 15.3,169.37 13.49,254.82 -1.58,74.05 -6.21,148.08 -9.37,222.07 -1.55,36.3 -3.52,72.68 -3.99,109.02 -0.33,25.43 10.66,78.66 -12.21,96.85 -44.59,35.47 -95.31,-37.22 -104.05,-72.9 -17.27,-70.5 -24.56,-144.33 -35.19,-216.05 -2.72,-18.39 -5.14,-36.87 -8.55,-55.15 -3.25,-17.36 -7.77,-34.46 -10,-52.04 -2.75,-21.6 -13.83,11.57 -18.2,32.65 -3.17,15.25 0.82,18.23 -12.51,28.38 -15.97,12.17 -47.68,11.89 -66.3,10.7 -31.57,-2.03 -73.58,-13.83 -97.17,-36.51 -28.36,-27.25 8.99,-46.38 30.15,-67.44 11.49,-11.44 55.31,5.85 42.97,18.14"
         style="fill:#050606;fill-opacity:1;fill-rule:nonzero;stroke:none"
         id="path92"
         inkscape:connector-curvature="0" /><path
         d="m 645.156,38.4688 0,-1.9688 L 446.875,2.96094 C 440.957,25.6523 421.227,63.1406 398.535,96.6719 L 199.27,392.621 365.98,628.391 c 24.665,35.511 33.54,60.179 32.555,78.922 l 205.192,0 0,-1.973 C 562.297,685.609 518.887,639.242 487.32,595.832 L 348.227,407.422 535.66,133.18 C 569.199,83.8516 596.82,58.2109 645.156,38.4688 Z m -408.402,-14.7891 0,-1.9805 -236.754,0 0,1.9805 C 24.6641,40.4414 53.2734,88.7813 53.2734,169.672 l 0,393.609 C 53.2734,641.211 25.6484,688.57 0,705.34 l 0,1.973 236.754,0 0,-1.973 c -22.688,-16.77 -48.336,-65.11 -48.336,-146 l 0,-390.649 c 0,-80.8902 25.648,-128.2496 48.336,-145.0113"
         style="fill:#050606;fill-opacity:1;fill-rule:nonzero;stroke:none"
         id="path94"
         inkscape:connector-curvature="0" /><path
         d="m 1204.48,362.031 c 0,166.719 -80.89,262.418 -215.05,262.418 -130.215,0 -209.137,-102.597 -209.137,-256.5 0,-161.769 73,-263.39 214.066,-263.39 121.341,0 210.121,99.64 210.121,257.472 z M 633.305,358.09 c 0,221.961 138.113,368.941 365.988,368.941 C 1210.4,727.031 1351.46,584 1351.46,371.91 1351.46,151.922 1204.48,1.98047 984.492,1.98047 763.523,1.98047 633.305,155.859 633.305,358.09"
         style="fill:#050606;fill-opacity:1;fill-rule:nonzero;stroke:none"
         id="path96"
         inkscape:connector-curvature="0" /><path
         d="m 1453.06,23.6797 c 24.66,16.7617 53.27,65.1016 53.27,145.9923 l 0,389.668 c 0,81.871 -27.62,129.23 -53.27,146 l 0,1.973 242.67,0 0,-1.973 c -24.66,-16.77 -53.27,-65.11 -53.27,-146 l 0,-389.668 c 0,-81.8712 27.62,-129.2306 53.27,-145.9923 l 0,-1.9805 -242.67,0 0,1.9805"
         style="fill:#050606;fill-opacity:1;fill-rule:nonzero;stroke:none"
         id="path98"
         inkscape:connector-curvature="0" /><path
         d="m 2674.31,39.4609 0,-1.9804 L 2472.08,0.992188 C 2459.26,39.4609 2443.47,73.9922 2421.77,110.48 l -152.9,261.43 47.35,0 c 84.83,0 132.18,34.52 132.18,122.309 0,72.023 -47.35,117.39 -132.18,116.41 l -69.06,-0.988 0,-443.911 c 0,-77.9292 27.63,-125.2886 49.32,-142.0503 l 0,-1.9805 -237.73,0 0,1.9805 c 25.64,16.7617 53.27,65.1016 53.27,145.9923 l 0,393.609 c 0,77.93 -27.63,125.289 -53.27,142.059 l 0,1.973 280.16,0 c 157.83,0 249.58,-79.903 249.58,-208.153 0,-104.57 -51.3,-168.691 -134.17,-195.328 l 91.74,-148.949 c 37.49,-60.1838 80.89,-99.633 128.25,-115.4221"
         style="fill:#050606;fill-opacity:1;fill-rule:nonzero;stroke:none"
         id="path100"
         inkscape:connector-curvature="0" /><path
         d="M 3206.99,210.121 3179.37,13.8125 c -36.5,5.918 -62.15,7.8867 -120.36,7.8867 l -348.22,0 0,1.9805 c 24.66,16.7617 53.27,65.1016 53.27,145.9923 l 0,389.668 c 0,81.871 -27.62,129.23 -53.27,146 l 0,1.973 354.15,0 c 39.45,0 82.86,2.957 104.56,7.886 l 16.77,-176.578 -1.97,-0.992 c -23.67,48.34 -77.93,73 -154.88,73 l -130.21,0 0,-173.609 74.97,0 c 81.87,0 109.5,0.98 153.9,6.902 l -28.62,-165.731 -1.97,0 c -16.77,44.391 -52.28,62.149 -107.53,62.149 l -90.75,0 0,-221.961 107.53,0 c 86.8,0 155.86,32.551 198.28,92.73 l 1.97,-0.988"
         style="fill:#050606;fill-opacity:1;fill-rule:nonzero;stroke:none"
         id="path102"
         inkscape:connector-curvature="0" /><path
         d="m 3652.85,21.6992 -350.19,0 0,1.9805 c 24.65,16.7617 53.27,65.1016 53.27,145.9923 l 0,393.609 c 0,77.93 -27.63,125.289 -53.27,142.059 l 0,1.973 241.69,0 0,-1.973 c -24.67,-16.77 -53.28,-65.11 -53.28,-146 l 0,-438.981 97.66,0 c 85.83,0 154.88,29.582 197.31,88.77 l 1.97,-0.977 -25.66,-194.3395 c -37.48,6.9102 -64.12,7.8867 -109.5,7.8867"
         style="fill:#050606;fill-opacity:1;fill-rule:nonzero;stroke:none"
         id="path104"
         inkscape:connector-curvature="0" /><path
         d="m 4078.98,369.941 -36.49,-104.582 189.4,0 -36.5,104.582 c -22.68,64.122 -47.35,130.211 -57.22,206.168 l -3.94,0 c -8.88,-75.957 -32.55,-142.046 -55.25,-206.168 z m 417.29,-346.2613 0,-1.9805 -222.95,0 0,1.9805 c 16.78,12.8203 24.67,53.2695 0,121.3323 l -8.88,23.679 -254.51,0 -8.88,-23.679 C 3975.41,76.9492 3985.27,36.5 3999.08,23.6797 l 0,-1.9805 -207.16,0 0,1.9805 c 26.63,23.6719 69.06,83.8403 95.69,159.8123 l 141.06,406.43 c 19.74,58.199 0.99,99.629 -17.75,115.418 l 0,1.973 261.41,0 0,-1.973 c -18.74,-16.77 -38.46,-57.219 -17.75,-115.418 l 145.01,-406.43 c 26.64,-75.972 69.05,-137.1326 96.68,-159.8123"
         style="fill:#050606;fill-opacity:1;fill-rule:nonzero;stroke:none"
         id="path106"
         inkscape:connector-curvature="0" /><path
         d="m 5224.27,38.4688 0,-1.9688 L 5018.09,0 c 0,27.6211 -21.7,69.0625 -62.15,131.199 L 4855.32,287.059 4746.81,110.48 c -28.61,-46.3589 -21.7,-75.9605 -5.92,-86.8003 l 0,-1.9805 -232.81,0 0,1.9805 c 34.53,15.7812 81.88,65.1016 122.32,127.2503 l 152.91,235.769 -155.87,232.813 c -26.63,39.461 -49.32,63.129 -88.78,85.828 l 0,1.973 229.85,0 0,-1.973 c -5.92,-29.598 3.95,-55.25 26.64,-93.731 l 74.97,-125.277 70.04,120.348 c 24.66,42.429 37.49,69.062 21.71,98.66 l 0,1.973 217.02,0 0,-1.973 C 5148.3,693.5 5107.86,655.02 5065.44,585.969 L 4944.1,386.699 5089.12,177.563 c 47.34,-69.051 100.62,-116.3911 135.15,-139.0942"
         style="fill:#050606;fill-opacity:1;fill-rule:nonzero;stroke:none"
         id="path108"
         inkscape:connector-curvature="0" /><path
         d="m 5008.79,3630.63 c -1.5,-508.97 -156.02,-1009.63 -447.08,-1427.78 -70.33,-101.05 -148.12,-196.89 -232.49,-286.56 -20.95,-22.27 -42.34,-44.12 -64.14,-65.56 -11.57,-11.39 -23.25,-22.68 -35.06,-33.84 -78.98,-74.61 142.51,122.63 110.33,96.86 -50.9,-40.77 -101.69,-81.24 -155.04,-118.81 C 3983.9,1653.07 3761.57,1541.17 3527.5,1464.29 3037.08,1303.22 2498.55,1298.7 2005.44,1451.3 c -471.84,146.01 -895,434.14 -1205.569,817.99 -317.039,391.84 -510.148,876.67 -548.578,1379.29 -39.047,510.69 79.906,1027.74 341.367,1468.4 62.942,106.08 133.738,207.51 211.606,303.18 38.101,46.8 77.867,92.25 119.226,136.2 22.543,23.96 45.582,47.44 69.102,70.44 9.946,9.74 19.976,19.4 30.096,28.96 82.78,78.2 -159.417,-136.13 -105.807,-93.1 194.257,155.97 404.677,286.42 635.347,381.68 476.77,196.87 1012.37,240.47 1515.08,125.39 485.64,-111.18 932.15,-370.35 1271.43,-734.93 339.4,-364.72 565.31,-828.72 640.94,-1321.31 19.46,-126.72 28.73,-254.68 29.11,-382.86 -0.01,2.31 39.71,33.47 35.82,30.11 28.48,24.61 56.75,49.48 84.97,74.39 28.22,24.91 56.4,49.88 84.36,75.09 5.77,5.2 34.34,25.09 34.32,31.8 -1.55,527.89 -168.03,1046.37 -479.48,1473.24 -303.16,415.52 -733.59,733 -1221.01,897.74 -509.46,172.2 -1072.17,174.55 -1583.09,6.75 C 1719.56,6139.24 1487.31,6020.32 1278.5,5868.81 1135.43,5765 1003.97,5645.5 872.762,5527.41 776.508,5440.78 684.426,5350.29 600.441,5251.6 261.672,4853.48 53.793,4352.63 12.4023,3831.43 -29.6484,3301.82 98.5039,2765.48 378.605,2313.79 650.418,1875.47 1057.57,1526.05 1532.66,1325.1 c 492.71,-208.4 1050.08,-252.31 1569.68,-125.29 562.95,137.62 1027.96,479.67 1428.64,888.61 361.61,369.08 604.36,845.79 685.92,1356.36 20.99,131.39 30.97,264.21 31.36,397.24 0,-2.35 -39.67,-33.44 -35.82,-30.11 -28.48,-24.61 -56.75,-49.48 -84.97,-74.39 -28.22,-24.91 -56.4,-49.87 -84.36,-75.08 -5.81,-5.24 -34.3,-25.03 -34.32,-31.81"
         style="fill:#050606;fill-opacity:1;fill-rule:nonzero;stroke:none"
         id="path110"
         inkscape:connector-curvature="0" /></g></g></svg>